<?xml version="1.0" encoding="UTF-8" standalone="no"?>
<!-- Created with Inkscape (http://www.inkscape.org/) -->

<svg
   xmlns:dc="http://purl.org/dc/elements/1.1/"
   xmlns:cc="http://creativecommons.org/ns#"
   xmlns:rdf="http://www.w3.org/1999/02/22-rdf-syntax-ns#"
   xmlns:svg="http://www.w3.org/2000/svg"
   xmlns="http://www.w3.org/2000/svg"
   xmlns:sodipodi="http://sodipodi.sourceforge.net/DTD/sodipodi-0.dtd"
   xmlns:inkscape="http://www.inkscape.org/namespaces/inkscape"
   width="5.2917018mm"
   height="5.291666mm"
   viewBox="0 0 5.2917018 5.291666"
   version="1.1"
   id="svg2907"
   inkscape:version="0.92.2 (unknown)"
   sodipodi:docname="linkedin.svg">
  <defs
     id="defs2901" />
  <sodipodi:namedview
     id="base"
     pagecolor="#ffffff"
     bordercolor="#666666"
     borderopacity="1.0"
     inkscape:pageopacity="0.0"
     inkscape:pageshadow="2"
     inkscape:zoom="7.9195959"
     inkscape:cx="-8.6532971"
     inkscape:cy="-20.156488"
     inkscape:document-units="mm"
     inkscape:current-layer="layer1"
     showgrid="false"
     fit-margin-top="0"
     fit-margin-left="0"
     fit-margin-right="0"
     fit-margin-bottom="0"
     inkscape:window-width="1920"
     inkscape:window-height="1053"
     inkscape:window-x="0"
     inkscape:window-y="0"
     inkscape:window-maximized="1" />
  <metadata
     id="metadata2904">
    <rdf:RDF>
      <cc:Work
         rdf:about="">
        <dc:format>image/svg+xml</dc:format>
        <dc:type
           rdf:resource="http://purl.org/dc/dcmitype/StillImage" />
        <dc:title />
      </cc:Work>
    </rdf:RDF>
  </metadata>
  <g
     inkscape:label="Layer 1"
     inkscape:groupmode="layer"
     id="layer1"
     transform="translate(-32.127943,-58.497024)">
    <path
       inkscape:connector-curvature="0"
       style="fill:#312f3a;stroke-width:0.26458332;fill-opacity:1"
       d="m 32.26145,60.193827 h 1.03139 v 3.594524 h -1.03139 z m 0.489405,-0.449612 h -0.0075 c -0.373354,0 -0.615412,-0.274782 -0.615412,-0.622749 0,-0.355082 0.249214,-0.624442 0.630034,-0.624442 0.38051,0 0.614479,0.268683 0.621946,0.623426 0,0.347966 -0.241436,0.623765 -0.629101,0.623765 z m 4.668788,4.044475 h -1.169531 v -1.860452 c 0,-0.486882 -0.182943,-0.818924 -0.585232,-0.818924 -0.307705,0 -0.478826,0.223959 -0.558475,0.440464 -0.02987,0.07725 -0.0252,0.185334 -0.0252,0.293756 v 1.945156 h -1.15864 c 0,0 0.01493,-3.295348 0,-3.594863 h 1.158641 v 0.564132 c 0.06845,-0.246659 0.438691,-0.598692 1.029523,-0.598692 0.733018,0 1.308916,0.517376 1.308916,1.630394 z"
       id="path374" />
  </g>
</svg>
