<?xml version="1.0" encoding="UTF-8" standalone="no"?>
<!-- Created with Inkscape (http://www.inkscape.org/) -->

<svg
   xmlns:dc="http://purl.org/dc/elements/1.1/"
   xmlns:cc="http://creativecommons.org/ns#"
   xmlns:rdf="http://www.w3.org/1999/02/22-rdf-syntax-ns#"
   xmlns:svg="http://www.w3.org/2000/svg"
   xmlns="http://www.w3.org/2000/svg"
   xmlns:sodipodi="http://sodipodi.sourceforge.net/DTD/sodipodi-0.dtd"
   xmlns:inkscape="http://www.inkscape.org/namespaces/inkscape"
   width="5.8209128mm"
   height="4.2333331mm"
   viewBox="0 0 5.8209128 4.2333331"
   version="1.1"
   id="svg1720"
   inkscape:version="0.92.2 (unknown)"
   sodipodi:docname="mail.svg">
  <defs
     id="defs1714" />
  <sodipodi:namedview
     id="base"
     pagecolor="#ffffff"
     bordercolor="#666666"
     borderopacity="1.0"
     inkscape:pageopacity="0.0"
     inkscape:pageshadow="2"
     inkscape:zoom="44.8"
     inkscape:cx="9.1668776"
     inkscape:cy="6.1027629"
     inkscape:document-units="mm"
     inkscape:current-layer="layer1"
     showgrid="false"
     fit-margin-top="0"
     fit-margin-left="0"
     fit-margin-right="0"
     fit-margin-bottom="0"
     inkscape:window-width="1920"
     inkscape:window-height="1053"
     inkscape:window-x="0"
     inkscape:window-y="0"
     inkscape:window-maximized="1" />
  <metadata
     id="metadata1717">
    <rdf:RDF>
      <cc:Work
         rdf:about="">
        <dc:format>image/svg+xml</dc:format>
        <dc:type
           rdf:resource="http://purl.org/dc/dcmitype/StillImage" />
        <dc:title></dc:title>
      </cc:Work>
    </rdf:RDF>
  </metadata>
  <g
     inkscape:label="Layer 1"
     inkscape:groupmode="layer"
     id="layer1"
     transform="translate(-15.727737,-35.31653)">
    <path
       inkscape:connector-curvature="0"
       style="fill:#000000;stroke-width:0.26458332"
       d="m 16.286437,36.621433 c 0.07364,0.04809 0.295587,0.190938 0.665888,0.428448 0.3703,0.23751 0.653967,0.420404 0.851037,0.548643 0.02165,0.01406 0.06766,0.04462 0.138026,0.09171 0.07037,0.04713 0.128856,0.08525 0.175382,0.114289 0.04657,0.02904 0.102862,0.06163 0.168924,0.09768 0.06606,0.03606 0.128338,0.06314 0.186785,0.08111 0.05849,0.01808 0.112629,0.02705 0.162426,0.02705 h 0.0033 0.0033 c 0.0498,0 0.103937,-0.009 0.162425,-0.02705 0.05845,-0.01797 0.120762,-0.0451 0.186785,-0.08111 0.06602,-0.03609 0.122317,-0.06864 0.168884,-0.09768 0.04657,-0.02904 0.105014,-0.06716 0.175382,-0.114289 0.07037,-0.04713 0.116417,-0.07765 0.138066,-0.09171 0.199183,-0.128276 0.705954,-0.453986 1.520153,-0.977165 0.15808,-0.102185 0.290125,-0.225479 0.396256,-0.369808 0.106169,-0.144256 0.159194,-0.295596 0.159194,-0.453949 0,-0.132298 -0.05147,-0.245555 -0.154331,-0.339769 -0.102862,-0.09421 -0.224701,-0.141303 -0.365397,-0.141303 h -4.781416 c -0.166731,0 -0.295029,0.05211 -0.384893,0.156323 -0.08986,0.104252 -0.134796,0.234558 -0.134796,0.39088 0,0.126284 0.05956,0.263121 0.178652,0.410439 0.119088,0.147319 0.245791,0.263085 0.380028,0.347261 z m 4.937303,0.321687 c -0.710221,0.444944 -1.249486,0.790728 -1.617554,1.03728 -0.123433,0.08418 -0.223584,0.149864 -0.30049,0.196916 -0.07687,0.04713 -0.17917,0.09521 -0.30695,0.144329 -0.127739,0.04912 -0.246827,0.07366 -0.357263,0.07366 h -0.0033 -0.0033 c -0.110436,0 -0.229564,-0.02454 -0.357304,-0.07366 -0.127737,-0.04912 -0.23008,-0.0972 -0.306947,-0.144329 -0.07687,-0.04705 -0.177017,-0.11274 -0.300451,-0.196916 -0.292357,-0.19843 -0.830466,-0.544214 -1.614364,-1.03728 -0.123434,-0.07613 -0.232794,-0.163371 -0.32808,-0.261571 v 2.387205 c 0,0.132336 0.05087,0.245555 0.152658,0.339769 0.101784,0.09425 0.224141,0.14134 0.367071,0.14134 h 4.781416 c 0.142889,0 0.265246,-0.04709 0.367031,-0.14134 0.101825,-0.09425 0.152657,-0.207433 0.152657,-0.339769 v -2.387205 c -0.09313,0.09617 -0.201377,0.183409 -0.32485,0.261571 z"
       id="path486" />
  </g>
</svg>
